<svg width="176" height="176" viewBox="0 0 176 176" fill="none" xmlns="http://www.w3.org/2000/svg">
<path d="M107.999 91.8001V96.3801C107.999 103.66 103.659 108 96.3791 108H79.6191C74.5191 108 70.8391 105.86 69.1191 102.06L69.3391 101.9L79.1791 95.3001C80.7791 94.2201 83.0391 94.3401 84.4591 95.5801L85.1391 96.1401C86.6991 97.4801 89.2191 97.4801 90.7791 96.1401L99.0991 89.0001C100.659 87.6601 103.179 87.6601 104.739 89.0001L107.999 91.8001Z" fill="#1B3E66"/>
<path opacity="0.4" d="M105.94 80H100.06C97.52 80 96 78.48 96 75.94V70.06C96 69.26 96.16 68.58 96.44 68C96.42 68 96.4 68 96.38 68H79.62C72.34 68 68 72.34 68 79.62V96.38C68 98.56 68.38 100.46 69.12 102.06L69.34 101.9L79.18 95.3C80.78 94.22 83.04 94.34 84.46 95.58L85.14 96.14C86.7 97.48 89.22 97.48 90.78 96.14L99.1 89C100.66 87.66 103.18 87.66 104.74 89L108 91.8V79.62C108 79.6 108 79.58 108 79.56C107.42 79.84 106.74 80 105.94 80Z" fill="#1B3E66"/>
<path d="M82.0002 84.7602C84.6291 84.7602 86.7602 82.6291 86.7602 80.0002C86.7602 77.3714 84.6291 75.2402 82.0002 75.2402C79.3714 75.2402 77.2402 77.3714 77.2402 80.0002C77.2402 82.6291 79.3714 84.7602 82.0002 84.7602Z" fill="#1B3E66"/>
<path d="M105.94 66H100.06C97.52 66 96 67.52 96 70.06V75.94C96 78.48 97.52 80 100.06 80H105.94C108.48 80 110 78.48 110 75.94V70.06C110 67.52 108.48 66 105.94 66ZM107.82 73.86C107.62 74.06 107.32 74.2 107 74.22H104.18L104.2 77C104.18 77.34 104.06 77.62 103.82 77.86C103.62 78.06 103.32 78.2 103 78.2C102.34 78.2 101.8 77.66 101.8 77V74.2L99 74.22C98.34 74.22 97.8 73.66 97.8 73C97.8 72.34 98.34 71.8 99 71.8L101.8 71.82V69.02C101.8 68.36 102.34 67.8 103 67.8C103.66 67.8 104.2 68.36 104.2 69.02L104.18 71.8H107C107.66 71.8 108.2 72.34 108.2 73C108.18 73.34 108.04 73.62 107.82 73.86Z" fill="#1B3E66"/>
<rect x="0.5" y="0.5" width="175" height="175" rx="3.5" stroke="#1B3E66" stroke-miterlimit="3.8637" stroke-linecap="round" stroke-dasharray="10 10"/>
</svg>
