<svg width="24" height="25" viewBox="0 0 24 25" fill="none" xmlns="http://www.w3.org/2000/svg">
<g opacity="0.4" clip-path="url(#clip0_912_3647)">
<path d="M1.18066 12.5C2.12066 7.38 6.60766 3.5 11.9997 3.5C17.3917 3.5 21.8777 7.38 22.8187 12.5C21.8787 17.62 17.3917 21.5 11.9997 21.5C6.60766 21.5 2.12166 17.62 1.18066 12.5ZM11.9997 17.5C13.3257 17.5 14.5975 16.9732 15.5352 16.0355C16.4729 15.0979 16.9997 13.8261 16.9997 12.5C16.9997 11.1739 16.4729 9.90215 15.5352 8.96447C14.5975 8.02678 13.3257 7.5 11.9997 7.5C10.6736 7.5 9.40181 8.02678 8.46413 8.96447C7.52645 9.90215 6.99966 11.1739 6.99966 12.5C6.99966 13.8261 7.52645 15.0979 8.46413 16.0355C9.40181 16.9732 10.6736 17.5 11.9997 17.5ZM11.9997 15.5C11.204 15.5 10.441 15.1839 9.87834 14.6213C9.31573 14.0587 8.99966 13.2956 8.99966 12.5C8.99966 11.7044 9.31573 10.9413 9.87834 10.3787C10.441 9.81607 11.204 9.5 11.9997 9.5C12.7953 9.5 13.5584 9.81607 14.121 10.3787C14.6836 10.9413 14.9997 11.7044 14.9997 12.5C14.9997 13.2956 14.6836 14.0587 14.121 14.6213C13.5584 15.1839 12.7953 15.5 11.9997 15.5Z" fill="#24324F"/>
</g>
<defs>
<clipPath id="clip0_912_3647">
<rect width="24" height="24" fill="white" transform="translate(0 0.5)"/>
</clipPath>
</defs>
</svg>
