<svg width="24" height="25" viewBox="0 0 24 25" fill="none" xmlns="http://www.w3.org/2000/svg">
<g opacity="0.4" clip-path="url(#clip0_912_3645)">
<path d="M16.9998 14.5H12.6588C12.187 15.8344 11.2587 16.9591 10.0378 17.6753C8.81703 18.3914 7.38233 18.6529 5.98734 18.4136C4.59235 18.1743 3.32688 17.4495 2.4146 16.3673C1.50231 15.2852 1.00195 13.9154 1.00195 12.5C1.00195 11.0846 1.50231 9.71483 2.4146 8.63269C3.32688 7.55055 4.59235 6.82576 5.98734 6.58642C7.38233 6.34708 8.81703 6.6086 10.0378 7.32475C11.2587 8.0409 12.187 9.16558 12.6588 10.5H22.9998V14.5H20.9998V18.5H16.9998V14.5ZM6.99981 14.5C7.53024 14.5 8.03895 14.2893 8.41402 13.9142C8.78909 13.5392 8.99981 13.0304 8.99981 12.5C8.99981 11.9696 8.78909 11.4609 8.41402 11.0858C8.03895 10.7107 7.53024 10.5 6.99981 10.5C6.46937 10.5 5.96067 10.7107 5.58559 11.0858C5.21052 11.4609 4.99981 11.9696 4.99981 12.5C4.99981 13.0304 5.21052 13.5392 5.58559 13.9142C5.96067 14.2893 6.46937 14.5 6.99981 14.5Z" fill="#24324F"/>
</g>
<defs>
<clipPath id="clip0_912_3645">
<rect width="24" height="24" fill="white" transform="translate(0 0.5)"/>
</clipPath>
</defs>
</svg>
