<svg width="50" height="50" viewBox="0 0 50 50" fill="none" xmlns="http://www.w3.org/2000/svg">
<circle cx="25" cy="25" r="24.5" stroke="white"/>
<path d="M32.0389 32.0433H29.0778V27.4022C29.0778 26.2956 29.0556 24.8711 27.5333 24.8711C25.99 24.8711 25.7544 26.0756 25.7544 27.3211V32.0433H22.7922V22.5H25.6367V23.8H25.6756C26.0733 23.0511 27.04 22.2589 28.4844 22.2589C31.4844 22.2589 32.04 24.2344 32.04 26.8044V32.0433H32.0389ZM19.4478 21.1944C19.2217 21.1947 18.9978 21.1504 18.789 21.064C18.5801 20.9776 18.3903 20.8508 18.2305 20.6909C18.0707 20.531 17.9441 20.3412 17.8578 20.1322C17.7715 19.9233 17.7273 19.6994 17.7278 19.4733C17.728 19.1331 17.8291 18.8007 18.0183 18.5179C18.2074 18.2352 18.4762 18.0149 18.7906 17.8849C19.105 17.755 19.4508 17.7211 19.7844 17.7877C20.118 17.8543 20.4244 18.0183 20.6648 18.259C20.9052 18.4997 21.0688 18.8063 21.1349 19.14C21.2011 19.4737 21.1668 19.8195 21.0364 20.1337C20.906 20.4479 20.6854 20.7164 20.4024 20.9052C20.1195 21.094 19.7869 21.1947 19.4467 21.1944H19.4478ZM20.9322 32.0433H17.9622V22.5H20.9333V32.0433H20.9322ZM33.5222 15H16.4767C15.6589 15 15 15.6444 15 16.4411V33.5589C15 34.3556 15.66 35 16.4756 35H33.5178C34.3333 35 35 34.3556 35 33.5589V16.4411C35 15.6444 34.3333 15 33.5178 15H33.5211H33.5222Z" fill="white"/>
</svg>
