<svg width="24" height="25" viewBox="0 0 24 25" fill="none" xmlns="http://www.w3.org/2000/svg">
<path d="M20.6191 8.95C19.5691 4.33 15.5391 2.25 11.9991 2.25C11.9991 2.25 11.9991 2.25 11.9891 2.25C8.45912 2.25 4.41912 4.32 3.36912 8.94C2.19912 14.1 5.35912 18.47 8.21912 21.22C9.27912 22.24 10.6391 22.75 11.9991 22.75C13.3591 22.75 14.7191 22.24 15.7691 21.22C18.6291 18.47 21.7891 14.11 20.6191 8.95ZM11.9991 13.96C10.2591 13.96 8.84912 12.55 8.84912 10.81C8.84912 9.07 10.2591 7.66 11.9991 7.66C13.7391 7.66 15.1491 9.07 15.1491 10.81C15.1491 12.55 13.7391 13.96 11.9991 13.96Z" fill="#292D32"/>
</svg>
